<svg width="270" height="128" viewBox="0 0 270 128" fill="none" xmlns="http://www.w3.org/2000/svg">
<path d="M110 69C110 98.8234 85.8234 123 56 123C26.1766 123 2 98.8234 2 69C2 39.1766 26.1766 15 56 15C85.8234 15 110 39.1766 110 69Z" fill="white"/>
<path d="M110 69C110 94.9574 93.9574 116 68 116C42.0426 116 21 94.9574 21 69C21 43.0426 42.0426 22 68 22C93.9574 22 110 43.0426 110 69Z" fill="#713C36"/>
<path d="M51.82 78.22C51.7 78.22 51.64 78.16 51.64 78.04C51.64 77.88 51.74 77.7 51.94 77.5C52.14 77.26 52.32 77.16 52.48 77.2C53.08 77.2 53.64 77.22 54.16 77.26C54.72 77.26 55.22 77.26 55.66 77.26C57.1 77.26 58.22 77.2 59.02 77.08C59.86 76.92 60.5 76.62 60.94 76.18C61.42 75.7 61.82 75 62.14 74.08C62.46 73.16 62.82 71.94 63.22 70.42C64.22 66.82 65.1 63.18 65.86 59.5C66.66 55.78 67.38 52.08 68.02 48.4C68.1 47.96 68.16 47.54 68.2 47.14C68.28 46.74 68.32 46.4 68.32 46.12C68.32 45.08 67.98 44.4 67.3 44.08C66.66 43.76 65.52 43.6 63.88 43.6C61.48 43.6 59.5 44.38 57.94 45.94C56.38 47.46 55.06 49.54 53.98 52.18C53.94 52.3 53.86 52.36 53.74 52.36C53.66 52.36 53.56 52.3 53.44 52.18C53.36 52.02 53.34 51.86 53.38 51.7C53.58 51.22 53.8 50.58 54.04 49.78C54.28 48.94 54.58 48.04 54.94 47.08C55.38 45.92 55.76 44.86 56.08 43.9C56.44 42.9 56.9 42.1 57.46 41.5C58.02 40.9 58.84 40.64 59.92 40.72C61.44 40.84 63.36 40.98 65.68 41.14C68.04 41.26 70.5 41.32 73.06 41.32C74.5 41.32 75.78 41.3 76.9 41.26C78.06 41.22 79.24 41.16 80.44 41.08C81.64 41 83.08 40.92 84.76 40.84C85.8 40.76 86.52 40.9 86.92 41.26C87.32 41.58 87.52 42.14 87.52 42.94C87.52 43.42 87.46 44 87.34 44.68C87.18 45.6 87.04 46.42 86.92 47.14C86.84 47.86 86.76 48.6 86.68 49.36C86.64 50.12 86.54 51.04 86.38 52.12C86.34 52.36 86.2 52.48 85.96 52.48C85.84 52.48 85.72 52.4 85.6 52.24C85.52 52.08 85.5 51.86 85.54 51.58C85.66 50.78 85.72 50.08 85.72 49.48C85.72 47.48 85.26 46.1 84.34 45.34C83.42 44.54 82.22 44.14 80.74 44.14C78.82 44.14 77.4 44.36 76.48 44.8C75.56 45.24 74.94 45.72 74.62 46.24C74.3 46.72 74.02 47.1 73.78 47.38C73.66 47.54 73.46 48.18 73.18 49.3C72.9 50.42 72.58 51.84 72.22 53.56C71.86 55.28 71.5 57.1 71.14 59.02C70.78 60.94 70.44 62.8 70.12 64.6C69.8 66.4 69.54 67.94 69.34 69.22C69.14 70.5 69.04 71.34 69.04 71.74C69.04 71.98 69.02 72.3 68.98 72.7C68.94 73.06 68.92 73.46 68.92 73.9C68.92 74.58 69.02 75.22 69.22 75.82C69.42 76.42 69.86 76.78 70.54 76.9C70.86 76.94 71.4 76.98 72.16 77.02C72.96 77.06 73.84 77.1 74.8 77.14C75.8 77.18 76.74 77.2 77.62 77.2C78.5 77.2 79.16 77.18 79.6 77.14C79.8 77.14 79.9 77.22 79.9 77.38C79.9 77.54 79.8 77.72 79.6 77.92C79.4 78.12 79.2 78.22 79 78.22C77.96 78.22 76.64 78.2 75.04 78.16C73.44 78.12 71.76 78.08 70 78.04C68.28 78 66.68 77.98 65.2 77.98C64.68 77.98 64.16 77.98 63.64 77.98C63.16 77.98 62.72 78 62.32 78.04C61.76 78.04 60.9 78.06 59.74 78.1C58.58 78.14 57.3 78.18 55.9 78.22C54.5 78.22 53.16 78.22 51.88 78.22H51.82ZM91.2583 78.7C89.7383 78.7 88.2583 78.48 86.8183 78.04C85.4183 77.56 84.4383 76.74 83.8783 75.58C83.4783 74.74 83.2783 73.56 83.2783 72.04C83.2783 70.64 83.4183 69.14 83.6983 67.54C83.9783 65.94 84.3183 64.38 84.7183 62.86C85.1583 61.34 85.5583 60.08 85.9183 59.08C86.4383 57.68 87.2583 56.36 88.3783 55.12C89.4983 53.88 90.9783 52.9 92.8183 52.18C93.4983 51.9 94.3783 51.66 95.4583 51.46C96.5783 51.26 97.7183 51.16 98.8783 51.16C100.438 51.16 101.918 51.4 103.318 51.88C104.718 52.32 105.718 53.14 106.318 54.34C106.718 55.14 106.918 56.28 106.918 57.76C106.918 59.12 106.758 60.62 106.438 62.26C106.158 63.9 105.818 65.48 105.418 67C105.018 68.48 104.618 69.74 104.218 70.78C103.698 72.14 102.878 73.46 101.758 74.74C100.638 75.98 99.1583 76.96 97.3183 77.68C96.6383 77.96 95.7383 78.2 94.6183 78.4C93.5383 78.6 92.4183 78.7 91.2583 78.7ZM92.1583 77.32C93.0783 77.32 94.1983 77.02 95.5183 76.42C96.6783 75.86 97.5983 74.96 98.2783 73.72C98.9983 72.48 99.5583 71.12 99.9583 69.64C100.358 68.16 100.678 66.82 100.918 65.62C101.118 64.62 101.298 63.52 101.458 62.32C101.618 61.12 101.698 59.94 101.698 58.78C101.698 57.1 101.438 55.66 100.918 54.46C100.398 53.22 99.4183 52.6 97.9783 52.6C97.0983 52.6 95.9983 52.9 94.6783 53.5C93.5583 54.02 92.6383 54.92 91.9183 56.2C91.1983 57.44 90.6383 58.8 90.2383 60.28C89.8383 61.72 89.5183 63.04 89.2783 64.24C89.0783 65.24 88.8783 66.36 88.6783 67.6C88.5183 68.8 88.4383 69.98 88.4383 71.14C88.4383 72.82 88.6983 74.28 89.2183 75.52C89.7383 76.72 90.7183 77.32 92.1583 77.32ZM104.409 96.28C104.729 95.28 105.149 93.8 105.669 91.84C106.189 89.92 106.749 87.7 107.349 85.18C107.989 82.7 108.629 80.1 109.269 77.38C109.909 74.62 110.489 71.94 111.009 69.34C111.529 66.7 111.949 64.3 112.269 62.14C112.589 59.98 112.749 58.24 112.749 56.92C112.749 56.6 112.729 56.32 112.689 56.08C112.689 55.8 112.669 55.56 112.629 55.36L110.709 56.32C110.389 56.48 110.229 56.56 110.229 56.56C110.029 56.64 109.929 56.58 109.929 56.38C109.929 56.22 110.009 56.02 110.169 55.78C110.329 55.54 110.469 55.4 110.589 55.36C111.749 54.68 112.849 53.96 113.889 53.2C114.969 52.4 116.009 51.64 117.009 50.92C117.329 51.44 117.489 52.42 117.489 53.86C117.489 54.9 117.409 56.16 117.249 57.64C117.089 59.12 116.889 60.72 116.649 62.44C117.089 61.76 117.569 61.12 118.089 60.52C118.609 59.92 119.129 59.34 119.649 58.78C120.329 58.02 121.129 57.32 122.049 56.68C123.009 56 123.769 55.34 124.329 54.7C124.889 54.06 125.329 53.44 125.649 52.84C126.009 52.24 126.209 51.64 126.249 51.04L131.469 48.58C131.549 50.06 131.489 51.86 131.289 53.98C131.129 56.1 130.809 58.34 130.329 60.7C129.889 63.02 129.249 65.26 128.409 67.42C127.609 69.58 126.569 71.46 125.289 73.06C124.049 74.66 122.569 75.76 120.849 76.36H120.789C120.269 76.76 119.769 77.16 119.289 77.56C118.809 77.92 118.149 78.22 117.309 78.46C116.189 78.78 114.929 78.88 113.529 78.76C113.009 81.12 112.469 83.34 111.909 85.42C111.389 87.5 110.889 89.3 110.409 90.82C109.929 92.34 109.509 93.46 109.149 94.18L104.409 96.28ZM118.029 76.06C118.949 76.06 119.669 75.8 120.189 75.28C120.749 74.76 121.209 74.08 121.569 73.24C121.969 72.4 122.369 71.52 122.769 70.6C123.449 69.04 124.029 67.38 124.509 65.62C124.989 63.86 125.349 62.16 125.589 60.52C125.829 58.84 125.929 57.4 125.889 56.2C125.889 56.12 125.789 56.12 125.589 56.2C125.429 56.24 125.229 56.32 124.989 56.44C124.789 56.56 124.549 56.72 124.269 56.92C123.749 57.28 123.029 57.76 122.109 58.36C121.229 58.92 120.449 59.58 119.769 60.34C119.129 61.02 118.489 61.78 117.849 62.62C117.249 63.42 116.709 64.24 116.229 65.08C115.949 66.68 115.649 68.32 115.329 70C115.009 71.64 114.689 73.3 114.369 74.98C114.769 75.18 115.189 75.38 115.629 75.58C116.069 75.74 116.529 75.86 117.009 75.94C117.209 75.98 117.389 76.02 117.549 76.06C117.709 76.06 117.869 76.06 118.029 76.06ZM160.233 46.72L159.513 46.06C159.753 45.1 159.873 44.24 159.873 43.48C159.873 42.24 159.573 41.28 158.973 40.6C158.373 39.92 157.533 39.58 156.453 39.58C155.453 39.58 154.313 39.9 153.033 40.54L152.733 40C154.053 39.24 155.193 38.68 156.153 38.32C157.153 37.96 158.113 37.72 159.033 37.6C159.993 37.44 161.033 37.34 162.152 37.3L162.333 37.48C162.373 37.56 162.393 37.72 162.393 37.96C162.393 38.48 162.273 39.1 162.033 39.82C161.833 40.54 161.613 41.28 161.373 42.04C161.213 42.48 161.053 42.92 160.893 43.36C160.773 43.76 160.653 44.16 160.533 44.56C160.293 45.36 160.193 46.08 160.233 46.72ZM131.733 79.6C131.813 78 131.953 76.06 132.153 73.78C132.393 71.46 132.753 68.96 133.233 66.28C133.713 63.6 134.393 60.9 135.272 58.18C136.193 55.42 137.353 52.8 138.753 50.32C140.193 47.8 141.953 45.56 144.033 43.6C146.153 41.64 148.673 40.14 151.593 39.1L156.393 37.36L156.513 37.84C152.873 39.4 149.893 41.3 147.573 43.54C145.293 45.78 143.493 48.24 142.173 50.92C140.893 53.6 139.893 56.36 139.173 59.2C139.253 59.72 139.353 60.28 139.473 60.88C139.633 61.44 139.793 62.02 139.953 62.62C140.913 60.94 142.073 59.3 143.433 57.7C144.793 56.06 146.413 54.72 148.293 53.68C149.173 53.24 150.133 52.8 151.173 52.36C152.213 51.92 153.133 51.7 153.933 51.7C154.613 51.7 155.113 51.86 155.433 52.18C155.513 52.66 155.433 53.32 155.193 54.16C154.993 54.96 154.753 55.8 154.473 56.68L153.633 59.26C153.393 60.02 153.273 60.74 153.273 61.42L152.613 60.76C152.733 60.36 152.813 59.98 152.853 59.62C152.893 59.26 152.913 58.92 152.913 58.6C152.913 57.44 152.633 56.54 152.073 55.9C151.513 55.22 150.773 54.88 149.853 54.88C148.893 54.88 147.933 55.22 146.973 55.9C145.733 56.78 144.573 57.98 143.493 59.5C142.413 61.02 141.433 62.66 140.553 64.42C141.113 65.98 141.773 67.48 142.533 68.92C143.333 70.32 144.173 71.48 145.053 72.4C145.973 73.28 146.913 73.72 147.873 73.72C148.313 73.72 148.713 73.58 149.073 73.3C149.473 73.02 149.913 72.62 150.393 72.1C151.233 71.22 151.993 70.16 152.673 68.92C153.353 67.64 153.933 66.4 154.413 65.2C154.893 64 155.213 63.12 155.373 62.56L155.973 63.1C155.893 63.58 155.633 64.46 155.193 65.74C154.753 66.98 154.193 68.4 153.513 70C152.833 71.6 152.053 73.18 151.173 74.74C150.293 76.34 149.473 77.46 148.713 78.1C147.953 78.74 147.233 79.06 146.553 79.06C145.673 79.06 144.893 78.66 144.213 77.86C143.533 77.06 142.953 76.32 142.473 75.64C142.033 75 141.493 74.2 140.853 73.24C140.253 72.28 139.653 71.3 139.053 70.3C138.493 69.26 137.993 68.36 137.553 67.6C137.433 68.08 137.293 68.76 137.133 69.64C137.013 70.52 136.893 71.48 136.773 72.52C136.693 73.56 136.633 74.52 136.593 75.4C136.553 76.24 136.533 76.86 136.533 77.26C135.853 77.54 135.053 77.92 134.133 78.4C133.213 78.88 132.413 79.28 131.733 79.6ZM176.999 53.68C175.719 53.8 174.659 53.68 173.819 53.32C172.979 52.96 172.039 52.78 170.999 52.78C170.399 52.78 169.739 52.9 169.019 53.14L168.839 52.48C169.799 52 170.819 51.56 171.899 51.16C173.019 50.76 174.079 50.56 175.079 50.56C175.719 50.56 176.339 50.62 176.939 50.74C177.539 50.86 178.159 50.98 178.799 51.1C179.239 51.14 179.679 51.2 180.119 51.28C180.559 51.32 181.019 51.34 181.499 51.34C181.859 51.34 182.239 51.32 182.639 51.28C183.079 51.24 183.519 51.18 183.959 51.1L184.199 51.52C184.199 51.52 183.879 51.62 183.239 51.82C182.639 52.02 181.899 52.26 181.019 52.54C180.139 52.82 179.319 53.08 178.559 53.32C177.799 53.52 177.279 53.64 176.999 53.68ZM169.559 79.6C169.519 79.4 169.499 79.16 169.499 78.88C169.499 78.6 169.499 78.3 169.499 77.98C169.499 76.78 169.579 75.32 169.739 73.6C169.939 71.88 170.199 70.12 170.519 68.32C170.839 66.48 171.199 64.8 171.599 63.28C172.399 60.56 173.239 58.48 174.119 57.04C175.039 55.6 176.399 54.56 178.199 53.92C178.399 53.84 178.759 53.72 179.279 53.56C179.839 53.36 180.419 53.14 181.019 52.9C181.619 52.66 182.139 52.46 182.579 52.3C183.019 52.14 183.239 52.06 183.239 52.06L183.479 52.6L181.859 53.32C181.139 53.64 180.399 54.3 179.639 55.3C178.879 56.26 178.179 57.4 177.539 58.72C176.899 60 176.399 61.3 176.039 62.62C175.639 64.22 175.299 65.9 175.019 67.66C174.739 69.38 174.519 71 174.359 72.52C175.239 71.28 176.199 70.02 177.239 68.74C178.279 67.42 179.359 66.2 180.479 65.08C181.639 63.92 182.759 62.98 183.839 62.26L184.319 62.86C183.319 63.46 182.279 64.42 181.199 65.74C180.119 67.06 179.079 68.48 178.079 70C177.119 71.52 176.299 72.94 175.619 74.26C174.939 75.58 174.499 76.58 174.299 77.26L169.559 79.6ZM155.579 79.6C155.539 79.4 155.519 79.16 155.519 78.88C155.519 78.6 155.519 78.3 155.519 77.98C155.519 76.78 155.599 75.32 155.759 73.6C155.959 71.88 156.219 70.12 156.539 68.32C156.859 66.48 157.219 64.8 157.619 63.28C158.419 60.52 159.339 58.44 160.379 57.04C161.459 55.6 162.899 54.56 164.699 53.92C165.099 53.8 165.639 53.62 166.319 53.38C166.999 53.1 167.659 52.86 168.299 52.66L168.539 53.32L166.799 54.22C166.079 54.62 165.299 55.62 164.459 57.22C163.619 58.82 162.919 60.62 162.359 62.62C162.039 63.9 161.719 65.24 161.399 66.64C161.119 68.04 160.879 69.4 160.679 70.72C160.679 70.8 160.739 70.84 160.859 70.84C161.059 70.84 161.339 70.76 161.699 70.6C162.059 70.44 162.259 70.34 162.299 70.3C162.739 70.02 163.259 69.66 163.859 69.22C164.499 68.74 165.139 68.2 165.779 67.6C167.099 66.4 168.319 65.06 169.439 63.58C170.599 62.06 171.319 60.62 171.599 59.26C171.599 59.18 171.719 59.16 171.959 59.2C172.239 59.2 172.379 59.2 172.379 59.2C172.099 60.96 171.319 62.66 170.039 64.3C168.759 65.94 167.419 67.52 166.019 69.04C165.379 69.72 164.719 70.42 164.039 71.14C163.399 71.82 162.799 72.56 162.239 73.36C161.719 74.04 161.299 74.7 160.979 75.34C160.699 75.98 160.559 76.6 160.559 77.2L155.579 79.6ZM178.94 96.28C179.26 95.28 179.68 93.8 180.2 91.84C180.72 89.92 181.28 87.7 181.88 85.18C182.52 82.7 183.16 80.1 183.8 77.38C184.44 74.62 185.02 71.94 185.54 69.34C186.06 66.7 186.48 64.3 186.8 62.14C187.12 59.98 187.28 58.24 187.28 56.92C187.28 56.6 187.26 56.32 187.22 56.08C187.22 55.8 187.2 55.56 187.16 55.36L185.24 56.32C184.92 56.48 184.76 56.56 184.76 56.56C184.56 56.64 184.46 56.58 184.46 56.38C184.46 56.22 184.54 56.02 184.7 55.78C184.86 55.54 185 55.4 185.12 55.36C186.28 54.68 187.38 53.96 188.42 53.2C189.5 52.4 190.54 51.64 191.54 50.92C191.86 51.44 192.02 52.42 192.02 53.86C192.02 54.9 191.94 56.16 191.78 57.64C191.62 59.12 191.42 60.72 191.18 62.44C191.62 61.76 192.1 61.12 192.62 60.52C193.14 59.92 193.66 59.34 194.18 58.78C194.86 58.02 195.66 57.32 196.58 56.68C197.54 56 198.3 55.34 198.86 54.7C199.42 54.06 199.86 53.44 200.18 52.84C200.54 52.24 200.74 51.64 200.78 51.04L206 48.58C206.08 50.06 206.02 51.86 205.82 53.98C205.66 56.1 205.34 58.34 204.86 60.7C204.42 63.02 203.78 65.26 202.94 67.42C202.14 69.58 201.1 71.46 199.82 73.06C198.58 74.66 197.1 75.76 195.38 76.36H195.32C194.8 76.76 194.3 77.16 193.82 77.56C193.34 77.92 192.68 78.22 191.84 78.46C190.72 78.78 189.46 78.88 188.06 78.76C187.54 81.12 187 83.34 186.44 85.42C185.92 87.5 185.42 89.3 184.94 90.82C184.46 92.34 184.04 93.46 183.68 94.18L178.94 96.28ZM192.56 76.06C193.48 76.06 194.2 75.8 194.72 75.28C195.28 74.76 195.74 74.08 196.1 73.24C196.5 72.4 196.9 71.52 197.3 70.6C197.98 69.04 198.56 67.38 199.04 65.62C199.52 63.86 199.88 62.16 200.12 60.52C200.36 58.84 200.46 57.4 200.42 56.2C200.42 56.12 200.32 56.12 200.12 56.2C199.96 56.24 199.76 56.32 199.52 56.44C199.32 56.56 199.08 56.72 198.8 56.92C198.28 57.28 197.56 57.76 196.64 58.36C195.76 58.92 194.98 59.58 194.3 60.34C193.66 61.02 193.02 61.78 192.38 62.62C191.78 63.42 191.24 64.24 190.76 65.08C190.48 66.68 190.18 68.32 189.86 70C189.54 71.64 189.22 73.3 188.9 74.98C189.3 75.18 189.72 75.38 190.16 75.58C190.6 75.74 191.06 75.86 191.54 75.94C191.74 75.98 191.92 76.02 192.08 76.06C192.24 76.06 192.4 76.06 192.56 76.06ZM215.984 50.92C215.504 50.92 215.024 50.86 214.544 50.74C214.104 50.58 213.604 50.36 213.044 50.08L215.564 46.72C215.884 46.88 216.324 46.96 216.884 46.96C217.764 46.96 218.764 46.78 219.884 46.42C221.004 46.02 222.024 45.5 222.944 44.86C223.264 44.34 223.624 44.08 224.024 44.08C224.264 44.08 224.384 44.2 224.384 44.44C224.384 44.6 224.264 44.86 224.024 45.22C223.784 45.58 223.324 46.06 222.644 46.66C222.004 47.22 221.304 47.82 220.544 48.46C219.824 49.06 219.204 49.58 218.684 50.02C218.164 50.42 217.904 50.62 217.904 50.62C217.544 50.7 217.204 50.78 216.884 50.86C216.604 50.9 216.304 50.92 215.984 50.92ZM206.564 79.6C206.524 79.4 206.504 79.18 206.504 78.94C206.504 78.66 206.504 78.38 206.504 78.1C206.504 76.86 206.584 75.38 206.744 73.66C206.944 71.94 207.204 70.16 207.524 68.32C207.884 66.48 208.264 64.8 208.664 63.28C209.464 60.56 210.344 58.48 211.304 57.04C212.264 55.6 213.644 54.56 215.444 53.92C215.644 53.84 216.004 53.72 216.524 53.56C217.084 53.36 217.664 53.14 218.264 52.9C218.864 52.66 219.384 52.46 219.824 52.3C220.264 52.14 220.484 52.06 220.484 52.06L220.724 52.6L219.104 53.32C218.384 53.64 217.644 54.3 216.884 55.3C216.124 56.26 215.424 57.4 214.784 58.72C214.144 60 213.644 61.3 213.284 62.62C212.884 64.22 212.504 65.9 212.144 67.66C211.784 69.38 211.524 71 211.364 72.52C212.644 70.64 214.124 68.74 215.804 66.82C217.524 64.86 219.204 63.34 220.844 62.26L221.264 62.86C220.264 63.46 219.224 64.42 218.144 65.74C217.104 67.06 216.084 68.48 215.084 70C214.124 71.52 213.304 72.94 212.624 74.26C211.944 75.58 211.504 76.58 211.304 77.26L206.564 79.6Z" fill="white"/>
<path d="M37.75 17.7744L37.8623 18.1201H55.2129L41.4697 28.1055L41.1758 28.3193L41.2881 28.6641L46.5371 44.8203L32.7939 34.8359L32.5 34.6221L32.2061 34.8359L18.4619 44.8203L23.7119 28.6641L23.8242 28.3193L23.5303 28.1055L9.78711 18.1201H27.1377L27.25 17.7744L32.5 1.61719L37.75 17.7744Z" fill="#D6A85E" stroke="white"/>
<path d="M18.5049 102.864L18.6162 103.21H28.7021L20.8369 108.925L20.543 109.139L20.6553 109.484L23.6592 118.73L15.7939 113.016L15.5 112.803L15.2061 113.016L7.33984 118.73L10.3447 109.484L10.457 109.139L10.1631 108.925L2.29785 103.21H12.3838L12.4951 102.864L15.5 93.6172L18.5049 102.864Z" fill="#D6A85E" stroke="white"/>
<path d="M25.2752 114.056L25.2366 114.417L30.0924 116.589L25.2427 117.611L24.8871 117.687L24.8485 118.048L24.3217 122.976L21.8507 118.68L21.6697 118.365L21.3141 118.44L16.4635 119.462L19.7867 115.784L20.0304 115.514L19.8494 115.199L17.3783 110.903L22.2351 113.075L22.4787 112.805L25.8015 109.126L25.2752 114.056Z" fill="#D6A85E" stroke="white"/>
<path d="M137.88 119.48C137.8 119.48 137.76 119.44 137.76 119.36C137.76 119.253 137.827 119.133 137.96 119C138.093 118.84 138.213 118.773 138.32 118.8C138.72 118.8 139.093 118.813 139.44 118.84C139.813 118.84 140.147 118.84 140.44 118.84C141.4 118.84 142.147 118.8 142.68 118.72C143.24 118.613 143.667 118.413 143.96 118.12C144.28 117.8 144.547 117.333 144.76 116.72C144.973 116.107 145.213 115.293 145.48 114.28C146.147 111.88 146.733 109.453 147.24 107C147.773 104.52 148.253 102.053 148.68 99.6C148.733 99.3067 148.773 99.0267 148.8 98.76C148.853 98.4933 148.88 98.2667 148.88 98.08C148.88 97.3867 148.653 96.9333 148.2 96.72C147.773 96.5067 147.013 96.4 145.92 96.4C144.32 96.4 143 96.92 141.96 97.96C140.92 98.9733 140.04 100.36 139.32 102.12C139.293 102.2 139.24 102.24 139.16 102.24C139.107 102.24 139.04 102.2 138.96 102.12C138.907 102.013 138.893 101.907 138.92 101.8C139.053 101.48 139.2 101.053 139.36 100.52C139.52 99.96 139.72 99.36 139.96 98.72C140.253 97.9467 140.507 97.24 140.72 96.6C140.96 95.9333 141.267 95.4 141.64 95C142.013 94.6 142.56 94.4267 143.28 94.48C144.293 94.56 145.573 94.6533 147.12 94.76C148.693 94.84 150.333 94.88 152.04 94.88C153 94.88 153.853 94.8667 154.6 94.84C155.373 94.8133 156.16 94.7733 156.96 94.72C157.76 94.6667 158.72 94.6133 159.84 94.56C160.533 94.5067 161.013 94.6 161.28 94.84C161.547 95.0533 161.68 95.4267 161.68 95.96C161.68 96.28 161.64 96.6667 161.56 97.12C161.453 97.7333 161.36 98.28 161.28 98.76C161.227 99.24 161.173 99.7333 161.12 100.24C161.093 100.747 161.027 101.36 160.92 102.08C160.893 102.24 160.8 102.32 160.64 102.32C160.56 102.32 160.48 102.267 160.4 102.16C160.347 102.053 160.333 101.907 160.36 101.72C160.44 101.187 160.48 100.72 160.48 100.32C160.48 98.9867 160.173 98.0667 159.56 97.56C158.947 97.0267 158.147 96.76 157.16 96.76C155.88 96.76 154.933 96.9067 154.32 97.2C153.707 97.4933 153.293 97.8133 153.08 98.16C152.867 98.48 152.68 98.7333 152.52 98.92C152.44 99.0267 152.307 99.4533 152.12 100.2C151.933 100.947 151.72 101.893 151.48 103.04C151.24 104.187 151 105.4 150.76 106.68C150.52 107.96 150.293 109.2 150.08 110.4C149.867 111.6 149.693 112.627 149.56 113.48C149.427 114.333 149.36 114.893 149.36 115.16C149.36 115.32 149.347 115.533 149.32 115.8C149.293 116.04 149.28 116.307 149.28 116.6C149.28 117.053 149.347 117.48 149.48 117.88C149.613 118.28 149.907 118.52 150.36 118.6C150.573 118.627 150.933 118.653 151.44 118.68C151.973 118.707 152.56 118.733 153.2 118.76C153.867 118.787 154.493 118.8 155.08 118.8C155.667 118.8 156.107 118.787 156.4 118.76C156.533 118.76 156.6 118.813 156.6 118.92C156.6 119.027 156.533 119.147 156.4 119.28C156.267 119.413 156.133 119.48 156 119.48C155.307 119.48 154.427 119.467 153.36 119.44C152.293 119.413 151.173 119.387 150 119.36C148.853 119.333 147.787 119.32 146.8 119.32C146.453 119.32 146.107 119.32 145.76 119.32C145.44 119.32 145.147 119.333 144.88 119.36C144.507 119.36 143.933 119.373 143.16 119.4C142.387 119.427 141.533 119.453 140.6 119.48C139.667 119.48 138.773 119.48 137.92 119.48H137.88ZM173.012 103.12C172.159 103.2 171.452 103.12 170.892 102.88C170.332 102.64 169.706 102.52 169.012 102.52C168.612 102.52 168.172 102.6 167.692 102.76L167.572 102.32C168.212 102 168.892 101.707 169.612 101.44C170.359 101.173 171.066 101.04 171.732 101.04C172.159 101.04 172.572 101.08 172.972 101.16C173.372 101.24 173.786 101.32 174.212 101.4C174.506 101.427 174.799 101.467 175.092 101.52C175.386 101.547 175.692 101.56 176.012 101.56C176.252 101.56 176.506 101.547 176.772 101.52C177.066 101.493 177.359 101.453 177.652 101.4L177.812 101.68C177.812 101.68 177.599 101.747 177.172 101.88C176.772 102.013 176.279 102.173 175.692 102.36C175.106 102.547 174.559 102.72 174.052 102.88C173.546 103.013 173.199 103.093 173.012 103.12ZM168.052 120.4C168.026 120.267 168.012 120.107 168.012 119.92C168.012 119.733 168.012 119.533 168.012 119.32C168.012 118.52 168.066 117.547 168.172 116.4C168.306 115.253 168.479 114.08 168.692 112.88C168.906 111.653 169.146 110.533 169.412 109.52C169.946 107.707 170.506 106.32 171.092 105.36C171.706 104.4 172.612 103.707 173.812 103.28C173.946 103.227 174.186 103.147 174.532 103.04C174.906 102.907 175.292 102.76 175.692 102.6C176.092 102.44 176.439 102.307 176.732 102.2C177.026 102.093 177.172 102.04 177.172 102.04L177.332 102.4L176.252 102.88C175.772 103.093 175.279 103.533 174.772 104.2C174.266 104.84 173.799 105.6 173.372 106.48C172.946 107.333 172.612 108.2 172.372 109.08C172.106 110.147 171.879 111.267 171.692 112.44C171.506 113.587 171.359 114.667 171.252 115.68C171.839 114.853 172.479 114.013 173.172 113.16C173.866 112.28 174.586 111.467 175.332 110.72C176.106 109.947 176.852 109.32 177.572 108.84L177.892 109.24C177.226 109.64 176.532 110.28 175.812 111.16C175.092 112.04 174.399 112.987 173.732 114C173.092 115.013 172.546 115.96 172.092 116.84C171.639 117.72 171.346 118.387 171.212 118.84L168.052 120.4ZM158.732 120.4C158.706 120.267 158.692 120.107 158.692 119.92C158.692 119.733 158.692 119.533 158.692 119.32C158.692 118.52 158.746 117.547 158.852 116.4C158.986 115.253 159.159 114.08 159.372 112.88C159.586 111.653 159.826 110.533 160.092 109.52C160.626 107.68 161.239 106.293 161.932 105.36C162.652 104.4 163.612 103.707 164.812 103.28C165.079 103.2 165.439 103.08 165.892 102.92C166.346 102.733 166.786 102.573 167.212 102.44L167.372 102.88L166.212 103.48C165.732 103.747 165.212 104.413 164.652 105.48C164.092 106.547 163.626 107.747 163.252 109.08C163.039 109.933 162.826 110.827 162.612 111.76C162.426 112.693 162.266 113.6 162.132 114.48C162.132 114.533 162.172 114.56 162.252 114.56C162.386 114.56 162.572 114.507 162.812 114.4C163.052 114.293 163.186 114.227 163.212 114.2C163.506 114.013 163.852 113.773 164.252 113.48C164.679 113.16 165.106 112.8 165.532 112.4C166.412 111.6 167.226 110.707 167.972 109.72C168.746 108.707 169.226 107.747 169.412 106.84C169.412 106.787 169.492 106.773 169.652 106.8C169.839 106.8 169.932 106.8 169.932 106.8C169.746 107.973 169.226 109.107 168.372 110.2C167.519 111.293 166.626 112.347 165.692 113.36C165.266 113.813 164.826 114.28 164.372 114.76C163.946 115.213 163.546 115.707 163.172 116.24C162.826 116.693 162.546 117.133 162.332 117.56C162.146 117.987 162.052 118.4 162.052 118.8L158.732 120.4ZM175.987 120L175.947 119.64C176.507 119.293 177.16 118.76 177.907 118.04C178.68 117.32 179.453 116.547 180.227 115.72C181 114.867 181.707 114.067 182.347 113.32C183.013 112.573 183.52 112 183.867 111.6H183.387C182.987 111.6 182.6 111.6 182.227 111.6C181.853 111.573 181.48 111.56 181.107 111.56C180.68 111.56 180.267 111.573 179.867 111.6C179.493 111.627 179.16 111.707 178.867 111.84L178.747 111.4L182.187 109.24C182.72 109.107 183.387 109.04 184.187 109.04C184.48 109.04 184.773 109.053 185.067 109.08C185.36 109.08 185.667 109.08 185.987 109.08C187.187 107.693 188.027 106.573 188.507 105.72C188.64 105.507 188.76 105.307 188.867 105.12C189 104.933 189.12 104.76 189.227 104.6C189.12 104.6 189.013 104.6 188.907 104.6C188.8 104.6 188.68 104.587 188.547 104.56C188.12 104.533 187.667 104.507 187.187 104.48C186.707 104.453 186.213 104.427 185.707 104.4C185.52 104.373 185.333 104.36 185.147 104.36C184.96 104.36 184.76 104.36 184.547 104.36C183.747 104.36 182.933 104.44 182.107 104.6C181.307 104.733 180.533 105.013 179.787 105.44L179.227 105.24L184.267 101.72C184.64 101.667 185.027 101.64 185.427 101.64C185.827 101.613 186.24 101.613 186.667 101.64C187.093 101.64 187.533 101.653 187.987 101.68C188.44 101.707 188.88 101.747 189.307 101.8C189.84 101.827 190.36 101.867 190.867 101.92C191.373 101.947 191.867 101.96 192.347 101.96C192.48 101.907 192.6 101.853 192.707 101.8C192.813 101.747 192.92 101.707 193.027 101.68C193.16 101.627 193.413 101.547 193.787 101.44C194.187 101.307 194.6 101.16 195.027 101C195.48 100.84 195.853 100.707 196.147 100.6C196.467 100.493 196.627 100.44 196.627 100.44L196.747 100.8L195.587 101.28C195.293 101.387 194.72 101.827 193.867 102.6C193.013 103.347 192.013 104.307 190.867 105.48C189.747 106.627 188.587 107.853 187.387 109.16C187.547 109.187 187.747 109.213 187.987 109.24C188.227 109.24 188.48 109.24 188.747 109.24C189.333 109.24 189.987 109.187 190.707 109.08C191.453 108.947 192.147 108.707 192.787 108.36L192.947 108.64L188.467 111.52C188.2 111.573 187.8 111.613 187.267 111.64C186.76 111.667 186.32 111.68 185.947 111.68H185.147C184.373 112.587 183.653 113.453 182.987 114.28C182.32 115.107 181.747 115.867 181.267 116.56C181.507 116.56 181.76 116.56 182.027 116.56C182.293 116.56 182.56 116.573 182.827 116.6C183.52 116.627 184.253 116.667 185.027 116.72C185.8 116.773 186.573 116.8 187.347 116.8C188.307 116.8 189.253 116.733 190.187 116.6C191.12 116.467 191.96 116.187 192.707 115.76L193.267 115.96L188.707 119.36C188.36 119.413 187.96 119.453 187.507 119.48C187.053 119.48 186.587 119.48 186.107 119.48C185.6 119.453 185.08 119.427 184.547 119.4C184.04 119.347 183.52 119.307 182.987 119.28C182.56 119.253 182.133 119.227 181.707 119.2C181.28 119.173 180.84 119.16 180.387 119.16C179.64 119.16 178.893 119.213 178.147 119.32C177.427 119.427 176.707 119.653 175.987 120ZM206.232 108.2L205.752 107.88C205.805 107.613 205.845 107.373 205.872 107.16C205.925 106.92 205.952 106.693 205.952 106.48C205.952 105.627 205.699 104.973 205.192 104.52C204.712 104.067 204.072 103.84 203.272 103.84C202.525 103.84 201.659 104.067 200.672 104.52L200.472 104.2C201.725 103.48 202.885 102.92 203.952 102.52C205.045 102.12 206.085 101.92 207.072 101.92H207.232C207.525 101.92 207.672 102.08 207.672 102.4C207.672 102.747 207.605 103.16 207.472 103.64C207.339 104.093 207.192 104.573 207.032 105.08C206.925 105.347 206.832 105.613 206.752 105.88C206.672 106.12 206.605 106.373 206.552 106.64C206.365 107.307 206.259 107.827 206.232 108.2ZM197.512 120.04C196.712 120.04 195.965 119.92 195.272 119.68C194.579 119.44 194.085 119.013 193.792 118.4C193.605 118.027 193.472 117.6 193.392 117.12C193.339 116.613 193.312 116.093 193.312 115.56C193.312 114.6 193.405 113.587 193.592 112.52C193.805 111.427 194.045 110.427 194.312 109.52C194.872 107.707 195.499 106.32 196.192 105.36C196.885 104.4 197.832 103.707 199.032 103.28C199.219 103.227 199.512 103.12 199.912 102.96C200.339 102.8 200.765 102.64 201.192 102.48C201.645 102.293 202.005 102.16 202.272 102.08L202.312 102.56L199.952 103.84C199.605 104.027 199.245 104.453 198.872 105.12C198.499 105.76 198.152 106.533 197.832 107.44C197.512 108.347 197.219 109.28 196.952 110.24L199.472 109.04C199.792 108.96 200.139 108.92 200.512 108.92C200.859 108.92 201.192 108.947 201.512 109C201.859 109.053 202.205 109.107 202.552 109.16C203.165 109.24 203.792 109.28 204.432 109.28C204.699 109.28 204.965 109.267 205.232 109.24C205.525 109.213 205.805 109.173 206.072 109.12L206.232 109.4L202.512 111.24C202.352 111.267 202.192 111.293 202.032 111.32C201.899 111.32 201.752 111.32 201.592 111.32C200.952 111.32 200.299 111.24 199.632 111.08C198.992 110.92 198.352 110.84 197.712 110.84C197.552 110.84 197.392 110.84 197.232 110.84C197.099 110.84 196.952 110.867 196.792 110.92C196.659 111.56 196.539 112.187 196.432 112.8C196.352 113.387 196.312 113.947 196.312 114.48C196.312 115.307 196.432 115.987 196.672 116.52C197.019 117.267 197.525 117.853 198.192 118.28C198.859 118.68 199.592 118.88 200.392 118.88C201.565 118.88 202.725 118.4 203.872 117.44C205.019 116.48 205.845 114.933 206.352 112.8L206.912 113.2C206.672 113.867 206.419 114.6 206.152 115.4C205.885 116.173 205.645 117.12 205.432 118.24C205.165 118.667 204.832 118.947 204.432 119.08C204.032 119.213 203.579 119.28 203.072 119.28C202.885 119.28 202.672 119.28 202.432 119.28C202.192 119.253 201.952 119.24 201.712 119.24C201.339 119.427 200.752 119.613 199.952 119.8C199.179 119.96 198.365 120.04 197.512 120.04ZM209.337 120.4C209.444 119.547 209.577 118.44 209.737 117.08C209.924 115.72 210.164 114.213 210.457 112.56C210.75 110.907 211.097 109.2 211.497 107.44C211.897 105.68 212.364 103.973 212.897 102.32C213.457 100.667 214.084 99.1733 214.777 97.84C215.497 96.48 216.284 95.3867 217.137 94.56C218.017 93.7067 218.99 93.2133 220.057 93.08C220.244 93.0533 220.59 92.9867 221.097 92.88C221.604 92.7467 222.084 92.6267 222.537 92.52C222.99 92.3867 223.217 92.32 223.217 92.32L223.257 92.6L222.297 93.16C221.07 93.88 219.977 94.92 219.017 96.28C218.057 97.6133 217.217 99.1333 216.497 100.84C215.777 102.52 215.15 104.267 214.617 106.08C214.11 107.893 213.684 109.64 213.337 111.32C213.017 112.973 212.75 114.427 212.537 115.68C213.39 114.427 214.377 113.16 215.497 111.88C216.644 110.573 217.764 109.56 218.857 108.84L219.177 109.24C218.51 109.64 217.817 110.28 217.097 111.16C216.377 112.04 215.684 112.987 215.017 114C214.377 115.013 213.83 115.96 213.377 116.84C212.924 117.72 212.63 118.387 212.497 118.84L209.337 120.4ZM226.417 98.6L225.977 98.16C226.137 97.52 226.217 96.96 226.217 96.48C226.217 95.6267 226.004 94.9733 225.577 94.52C225.177 94.0667 224.617 93.84 223.897 93.84C223.257 93.84 222.51 94.04 221.657 94.44L221.457 94.12C222.337 93.6133 223.097 93.24 223.737 93C224.404 92.76 225.044 92.6 225.657 92.52C226.27 92.4133 226.95 92.3467 227.697 92.32L227.817 92.44C227.844 92.4933 227.857 92.6133 227.857 92.8C227.857 93.1467 227.79 93.56 227.657 94.04C227.524 94.52 227.377 95 227.217 95.48C227.11 95.7733 227.004 96.0667 226.897 96.36C226.79 96.6267 226.71 96.8933 226.657 97.16C226.577 97.4267 226.51 97.68 226.457 97.92C226.404 98.1333 226.39 98.36 226.417 98.6ZM226.424 101.28C226.104 101.28 225.784 101.24 225.464 101.16C225.171 101.053 224.837 100.907 224.464 100.72L226.144 98.48C226.357 98.5867 226.651 98.64 227.024 98.64C227.611 98.64 228.277 98.52 229.024 98.28C229.771 98.0133 230.451 97.6667 231.064 97.24C231.277 96.8933 231.517 96.72 231.784 96.72C231.944 96.72 232.024 96.8 232.024 96.96C232.024 97.0667 231.944 97.24 231.784 97.48C231.624 97.72 231.317 98.04 230.864 98.44C230.437 98.8133 229.971 99.2133 229.464 99.64C228.984 100.04 228.571 100.387 228.224 100.68C227.877 100.947 227.704 101.08 227.704 101.08C227.464 101.133 227.237 101.187 227.024 101.24C226.837 101.267 226.637 101.28 226.424 101.28ZM220.144 120.4C220.117 120.267 220.104 120.12 220.104 119.96C220.104 119.773 220.104 119.587 220.104 119.4C220.104 118.573 220.157 117.587 220.264 116.44C220.397 115.293 220.571 114.107 220.784 112.88C221.024 111.653 221.277 110.533 221.544 109.52C222.077 107.707 222.664 106.32 223.304 105.36C223.944 104.4 224.864 103.707 226.064 103.28C226.197 103.227 226.437 103.147 226.784 103.04C227.157 102.907 227.544 102.76 227.944 102.6C228.344 102.44 228.691 102.307 228.984 102.2C229.277 102.093 229.424 102.04 229.424 102.04L229.584 102.4L228.504 102.88C228.024 103.093 227.531 103.533 227.024 104.2C226.517 104.84 226.051 105.6 225.624 106.48C225.197 107.333 224.864 108.2 224.624 109.08C224.357 110.147 224.104 111.267 223.864 112.44C223.624 113.587 223.451 114.667 223.344 115.68C224.197 114.427 225.184 113.16 226.304 111.88C227.451 110.573 228.571 109.56 229.664 108.84L229.944 109.24C229.277 109.64 228.584 110.28 227.864 111.16C227.171 112.04 226.491 112.987 225.824 114C225.184 115.013 224.637 115.96 224.184 116.84C223.731 117.72 223.437 118.387 223.304 118.84L220.144 120.4ZM249.139 98.48L248.659 98.04C248.819 97.4 248.899 96.8267 248.899 96.32C248.899 95.4933 248.699 94.8533 248.299 94.4C247.899 93.9467 247.339 93.72 246.619 93.72C245.953 93.72 245.193 93.9333 244.339 94.36L244.139 94C245.019 93.4933 245.779 93.12 246.419 92.88C247.086 92.64 247.726 92.48 248.339 92.4C248.979 92.2933 249.673 92.2267 250.419 92.2L250.539 92.32C250.566 92.3733 250.579 92.48 250.579 92.64C250.579 92.9867 250.499 93.4 250.339 93.88C250.206 94.36 250.059 94.8533 249.899 95.36C249.793 95.6533 249.686 95.9467 249.579 96.24C249.499 96.5067 249.419 96.7733 249.339 97.04C249.179 97.5733 249.113 98.0533 249.139 98.48ZM230.139 120.4C230.193 119.333 230.286 118.04 230.419 116.52C230.579 114.973 230.819 113.307 231.139 111.52C231.459 109.733 231.913 107.933 232.499 106.12C233.113 104.28 233.886 102.533 234.819 100.88C235.779 99.2 236.953 97.7067 238.339 96.4C239.753 95.0933 241.433 94.0933 243.379 93.4L246.579 92.24L246.659 92.56C244.233 93.6 242.246 94.8667 240.699 96.36C239.179 97.8533 237.979 99.4933 237.099 101.28C236.246 103.067 235.579 104.907 235.099 106.8C235.153 107.147 235.219 107.52 235.299 107.92C235.406 108.293 235.513 108.68 235.619 109.08C236.259 107.96 237.033 106.867 237.939 105.8C238.846 104.707 239.926 103.813 241.179 103.12C241.766 102.827 242.406 102.533 243.099 102.24C243.793 101.947 244.406 101.8 244.939 101.8C245.393 101.8 245.726 101.907 245.939 102.12C245.993 102.44 245.939 102.88 245.779 103.44C245.646 103.973 245.486 104.533 245.299 105.12L244.739 106.84C244.579 107.347 244.499 107.827 244.499 108.28L244.059 107.84C244.139 107.573 244.193 107.32 244.219 107.08C244.246 106.84 244.259 106.613 244.259 106.4C244.259 105.627 244.073 105.027 243.699 104.6C243.326 104.147 242.833 103.92 242.219 103.92C241.579 103.92 240.939 104.147 240.299 104.6C239.473 105.187 238.699 105.987 237.979 107C237.259 108.013 236.606 109.107 236.019 110.28C236.393 111.32 236.833 112.32 237.339 113.28C237.873 114.213 238.433 114.987 239.019 115.6C239.633 116.187 240.259 116.48 240.899 116.48C241.193 116.48 241.459 116.387 241.699 116.2C241.966 116.013 242.259 115.747 242.579 115.4C243.139 114.813 243.646 114.107 244.099 113.28C244.553 112.427 244.939 111.6 245.259 110.8C245.579 110 245.793 109.413 245.899 109.04L246.299 109.4C246.246 109.72 246.073 110.307 245.779 111.16C245.486 111.987 245.113 112.933 244.659 114C244.206 115.067 243.686 116.12 243.099 117.16C242.513 118.227 241.966 118.973 241.459 119.4C240.953 119.827 240.473 120.04 240.019 120.04C239.433 120.04 238.913 119.773 238.459 119.24C238.006 118.707 237.619 118.213 237.299 117.76C237.006 117.333 236.646 116.8 236.219 116.16C235.819 115.52 235.419 114.867 235.019 114.2C234.646 113.507 234.313 112.907 234.019 112.4C233.939 112.72 233.846 113.173 233.739 113.76C233.659 114.347 233.579 114.987 233.499 115.68C233.446 116.373 233.406 117.013 233.379 117.6C233.353 118.16 233.339 118.573 233.339 118.84C232.886 119.027 232.353 119.28 231.739 119.6C231.126 119.92 230.593 120.187 230.139 120.4Z" fill="#D6A85E"/>
</svg>
