<svg width="139" height="139" viewBox="0 0 139 139" fill="none" xmlns="http://www.w3.org/2000/svg">
<rect width="139" height="139" rx="15" fill="#240B0B"/>
<path d="M124 75C124 104.823 99.8234 129 70 129C40.1766 129 16 104.823 16 75C16 45.1766 40.1766 21 70 21C99.8234 21 124 45.1766 124 75Z" fill="white"/>
<path d="M124 75C124 100.957 107.957 122 82 122C56.0426 122 35 100.957 35 75C35 49.0426 56.0426 28 82 28C107.957 28 124 49.0426 124 75Z" fill="#713C36"/>
<path d="M51.75 23.7744L51.8623 24.1201H69.2129L55.4697 34.1055L55.1758 34.3193L55.2881 34.6641L60.5371 50.8203L46.7939 40.8359L46.5 40.6221L46.2061 40.8359L32.4619 50.8203L37.7119 34.6641L37.8242 34.3193L37.5303 34.1055L23.7871 24.1201H41.1377L41.25 23.7744L46.5 7.61719L51.75 23.7744Z" fill="#D6A85E" stroke="white"/>
<path d="M32.5049 108.864L32.6162 109.21H42.7021L34.8369 114.925L34.543 115.139L34.6553 115.484L37.6592 124.73L29.7939 119.016L29.5 118.803L29.2061 119.016L21.3398 124.73L24.3447 115.484L24.457 115.139L24.1631 114.925L16.2979 109.21H26.3838L26.4951 108.864L29.5 99.6172L32.5049 108.864Z" fill="#D6A85E" stroke="white"/>
<path d="M39.2752 120.056L39.2366 120.417L44.0924 122.589L39.2427 123.611L38.887 123.687L38.8484 124.048L38.3217 128.976L35.8507 124.68L35.6696 124.365L35.314 124.44L30.4634 125.462L33.7867 121.784L34.0303 121.514L33.8493 121.199L31.3783 116.903L36.235 119.075L36.4786 118.805L39.8014 115.126L39.2752 120.056Z" fill="#D6A85E" stroke="white"/>
<path d="M56.82 98.22C56.7 98.22 56.64 98.16 56.64 98.04C56.64 97.88 56.74 97.7 56.94 97.5C57.14 97.26 57.32 97.16 57.48 97.2C58.08 97.2 58.64 97.22 59.16 97.26C59.72 97.26 60.22 97.26 60.66 97.26C62.1 97.26 63.22 97.2 64.02 97.08C64.86 96.92 65.5 96.62 65.94 96.18C66.42 95.7 66.82 95 67.14 94.08C67.46 93.16 67.82 91.94 68.22 90.42C69.22 86.82 70.1 83.18 70.86 79.5C71.66 75.78 72.38 72.08 73.02 68.4C73.1 67.96 73.16 67.54 73.2 67.14C73.28 66.74 73.32 66.4 73.32 66.12C73.32 65.08 72.98 64.4 72.3 64.08C71.66 63.76 70.52 63.6 68.88 63.6C66.48 63.6 64.5 64.38 62.94 65.94C61.38 67.46 60.06 69.54 58.98 72.18C58.94 72.3 58.86 72.36 58.74 72.36C58.66 72.36 58.56 72.3 58.44 72.18C58.36 72.02 58.34 71.86 58.38 71.7C58.58 71.22 58.8 70.58 59.04 69.78C59.28 68.94 59.58 68.04 59.94 67.08C60.38 65.92 60.76 64.86 61.08 63.9C61.44 62.9 61.9 62.1 62.46 61.5C63.02 60.9 63.84 60.64 64.92 60.72C66.44 60.84 68.36 60.98 70.68 61.14C73.04 61.26 75.5 61.32 78.06 61.32C79.5 61.32 80.78 61.3 81.9 61.26C83.06 61.22 84.24 61.16 85.44 61.08C86.64 61 88.08 60.92 89.76 60.84C90.8 60.76 91.52 60.9 91.92 61.26C92.32 61.58 92.52 62.14 92.52 62.94C92.52 63.42 92.46 64 92.34 64.68C92.18 65.6 92.04 66.42 91.92 67.14C91.84 67.86 91.76 68.6 91.68 69.36C91.64 70.12 91.54 71.04 91.38 72.12C91.34 72.36 91.2 72.48 90.96 72.48C90.84 72.48 90.72 72.4 90.6 72.24C90.52 72.08 90.5 71.86 90.54 71.58C90.66 70.78 90.72 70.08 90.72 69.48C90.72 67.48 90.26 66.1 89.34 65.34C88.42 64.54 87.22 64.14 85.74 64.14C83.82 64.14 82.4 64.36 81.48 64.8C80.56 65.24 79.94 65.72 79.62 66.24C79.3 66.72 79.02 67.1 78.78 67.38C78.66 67.54 78.46 68.18 78.18 69.3C77.9 70.42 77.58 71.84 77.22 73.56C76.86 75.28 76.5 77.1 76.14 79.02C75.78 80.94 75.44 82.8 75.12 84.6C74.8 86.4 74.54 87.94 74.34 89.22C74.14 90.5 74.04 91.34 74.04 91.74C74.04 91.98 74.02 92.3 73.98 92.7C73.94 93.06 73.92 93.46 73.92 93.9C73.92 94.58 74.02 95.22 74.22 95.82C74.42 96.42 74.86 96.78 75.54 96.9C75.86 96.94 76.4 96.98 77.16 97.02C77.96 97.06 78.84 97.1 79.8 97.14C80.8 97.18 81.74 97.2 82.62 97.2C83.5 97.2 84.16 97.18 84.6 97.14C84.8 97.14 84.9 97.22 84.9 97.38C84.9 97.54 84.8 97.72 84.6 97.92C84.4 98.12 84.2 98.22 84 98.22C82.96 98.22 81.64 98.2 80.04 98.16C78.44 98.12 76.76 98.08 75 98.04C73.28 98 71.68 97.98 70.2 97.98C69.68 97.98 69.16 97.98 68.64 97.98C68.16 97.98 67.72 98 67.32 98.04C66.76 98.04 65.9 98.06 64.74 98.1C63.58 98.14 62.3 98.18 60.9 98.22C59.5 98.22 58.16 98.22 56.88 98.22H56.82Z" fill="white"/>
<path d="M88.0983 99.6C88.0183 97.16 88.1783 94.54 88.5783 91.74C88.9783 88.94 89.5383 86.14 90.2583 83.34C90.9783 80.54 91.8183 77.92 92.7783 75.48C92.4183 75.48 92.0783 75.48 91.7583 75.48C91.4383 75.44 91.1183 75.4 90.7983 75.36C89.5183 75.28 88.4783 75.36 87.6783 75.6L87.4383 74.94L91.6383 73.44C91.9583 73.36 92.2983 73.3 92.6583 73.26C93.0183 73.22 93.3783 73.2 93.7383 73.2C94.6983 70.96 95.6983 69.06 96.7383 67.5C97.8183 65.94 98.8183 64.96 99.7383 64.56L106.518 61.68L106.698 62.1C104.618 63.34 102.838 64.92 101.358 66.84C99.9183 68.76 98.6983 70.88 97.6983 73.2C98.6183 73.24 99.5383 73.28 100.458 73.32C101.418 73.36 102.358 73.38 103.278 73.38C104.478 73.38 105.678 73.32 106.878 73.2C108.078 73.08 109.238 72.82 110.358 72.42L110.718 72.78L105.138 75.18C104.138 75.46 103.118 75.64 102.078 75.72C101.078 75.8 100.078 75.84 99.0783 75.84C98.6783 75.84 98.2783 75.84 97.8783 75.84C97.4783 75.84 97.0783 75.82 96.6783 75.78C95.7183 78.5 94.9783 81.34 94.4583 84.3C93.9783 87.26 93.5783 90.1 93.2583 92.82C94.1383 91.54 95.1383 90.22 96.2583 88.86C97.3783 87.5 98.5383 86.24 99.7383 85.08C100.978 83.92 102.138 82.98 103.218 82.26L103.698 82.86C102.698 83.46 101.638 84.44 100.518 85.8C99.3983 87.12 98.3183 88.56 97.2783 90.12C96.2783 91.68 95.3983 93.14 94.6383 94.5C93.9183 95.82 93.4583 96.82 93.2583 97.5L88.0983 99.6Z" fill="#D6A85E"/>
</svg>
